<svg version="1.1" viewBox="0.0 0.0 97.92125984251969 36.48031496062992" fill="none" stroke="none" stroke-linecap="square" stroke-miterlimit="10" xmlns:xlink="http://www.w3.org/1999/xlink" xmlns="http://www.w3.org/2000/svg"><clipPath id="p.0"><path d="m0 0l97.92126 0l0 36.480316l-97.92126 0l0 -36.480316z" clip-rule="nonzero"/></clipPath><g clip-path="url(#p.0)"><path fill="#000000" fill-opacity="0.0" d="m0 0l97.92126 0l0 36.480316l-97.92126 0z" fill-rule="evenodd"/><path fill="#000000" fill-opacity="0.0" d="m1.9685038 7.3848643l0 0c0 -3.0000706 2.4320378 -5.4321084 5.4321084 -5.4321084l83.10436 0c1.4406815 0 2.8223648 0.57230973 3.8410797 1.5910277c1.0187225 1.0187178 1.5910263 2.4003959 1.5910263 3.8410807l0 21.727783c0 3.0000687 -2.4320374 5.432106 -5.432106 5.432106l-83.10436 0c-3.0000706 0 -5.4321084 -2.4320374 -5.4321084 -5.432106z" fill-rule="evenodd"/><path stroke="#ff9900" stroke-width="4.0" stroke-linejoin="round" stroke-linecap="butt" d="m1.9685038 7.3848643l0 0c0 -3.0000706 2.4320378 -5.4321084 5.4321084 -5.4321084l83.10436 0c1.4406815 0 2.8223648 0.57230973 3.8410797 1.5910277c1.0187225 1.0187178 1.5910263 2.4003959 1.5910263 3.8410807l0 21.727783c0 3.0000687 -2.4320374 5.432106 -5.432106 5.432106l-83.10436 0c-3.0000706 0 -5.4321084 -2.4320374 -5.4321084 -5.432106z" fill-rule="evenodd"/><path fill="#000000" fill-opacity="0.0" d="m1.9632546 1.9527526l93.968575 0l0 32.592003l-93.968575 0z" fill-rule="evenodd"/><path fill="#ff9900" d="m19.739027 27.665628q-2.296875 0 -3.640625 -0.796875q-1.34375 -0.8125 -1.9375 -2.328125q-0.578125 -1.53125 -0.578125 -3.625l0 -7.625001q0 -2.125 0.578125 -3.625q0.59375 -1.5 1.9375 -2.2968745q1.34375 -0.796875 3.640625 -0.796875q2.328125 0 3.6875 0.796875q1.359375 0.7968745 1.9375 2.2968745q0.578125 1.5 0.578125 3.625l0 7.625001q0 2.09375 -0.578125 3.625q-0.578125 1.515625 -1.9375 2.328125q-1.359375 0.796875 -3.6875 0.796875zm0 -3.203125q0.71875 0 1.046875 -0.359375q0.328125 -0.359375 0.421875 -0.90625q0.109375 -0.5625 0.109375 -1.140625l0 -9.890626q0 -0.609375 -0.109375 -1.140625q-0.09375 -0.546875 -0.421875 -0.90625q-0.328125 -0.359375 -1.046875 -0.359375q-0.65625 0 -0.984375 0.359375q-0.328125 0.359375 -0.4375 0.90625q-0.09375 0.53125 -0.09375 1.140625l0 9.890626q0 0.578125 0.078125 1.140625q0.09375 0.546875 0.40625 0.90625q0.328125 0.359375 1.03125 0.359375zm8.795425 2.90625l0 -14.640626l4.124998 0l0 2.4375q0.71875 -1.265625 1.421875 -1.9375q0.703125 -0.671875 1.71875 -0.671875q0.203125 0 0.359375 0.015625q0.15625 0 0.28125 0.0625l0 4.093751q-0.28125 -0.125 -0.625 -0.203125q-0.34375 -0.09375 -0.71875 -0.09375q-0.71875 0 -1.328125 0.375q-0.59375 0.375 -1.109375 1.046875l0 9.515625l-4.124998 0zm11.832518 0.25q-1.125 0 -1.890625 -0.53125q-0.75 -0.53125 -1.140625 -1.34375q-0.375 -0.828125 -0.375 -1.6875q0 -1.375 0.546875 -2.3125q0.546875 -0.9375 1.4375 -1.5625q0.890625 -0.640625 1.953125 -1.078125q1.0625 -0.453125 2.09375 -0.796875l0 -1.46875q0 -0.390625 -0.078125 -0.671875q-0.078125 -0.29687595 -0.25 -0.45312595q-0.171875 -0.171875 -0.53125 -0.171875q-0.359375 0 -0.546875 0.15625q-0.1875 0.140625 -0.265625 0.40625095q-0.078125 0.265625 -0.09375 0.609375l-0.109375 1.0625l-3.84375 -0.15625q0.125 -2.640626 1.40625 -3.890626q1.28125 -1.25 3.828125 -1.25q2.234375 0 3.328125 1.234375q1.109375 1.21875 1.109375 3.171876l0 6.84375q0 0.90625 0.03125 1.59375q0.046875 0.671875 0.109375 1.1875q0.0625 0.5 0.109375 0.859375l-3.6875 0q-0.078125 -0.578125 -0.1875 -1.265625q-0.09375 -0.6875 -0.140625 -0.8125q-0.265625 0.90625 -0.96875 1.625q-0.6875 0.703125 -1.84375 0.703125zm1.46875 -2.78125q0.25 0 0.453125 -0.09375q0.21875 -0.109375 0.390625 -0.28125q0.1875 -0.1875 0.3125 -0.359375l0 -4.0q-0.5 0.296875 -0.9375 0.625q-0.421875 0.3125 -0.734375 0.6875q-0.296875 0.375 -0.46875 0.828125q-0.15625 0.4375 -0.15625 1.0q0 0.734375 0.296875 1.171875q0.3125 0.421875 0.84375 0.421875zm7.57283 2.53125l0 -14.640626l4.125 0l0 1.46875q0.8125 -0.8125 1.6875 -1.265625q0.875 -0.453125 1.828125 -0.453125q0.921875 0 1.515625 0.453125q0.59375 0.4375 0.890625 1.203125q0.3125 0.765625 0.3125 1.765625l0 11.468751l-4.109375 0l0 -10.890625q0 -0.53125095 -0.1875 -0.81250095q-0.171875 -0.28125 -0.640625 -0.28125q-0.265625 0 -0.609375 0.140625q-0.328125 0.140625 -0.6875 0.390625l0 11.453126l-4.125 0zm17.622623 5.062498q-1.640625 0 -2.875 -0.328125q-1.2343788 -0.3281231 -1.9062538 -0.9843731q-0.65625 -0.65625 -0.65625 -1.640625q0 -0.765625 0.328125 -1.359375q0.34375 -0.59375 0.96875 -1.015625q0.625 -0.4375 1.4062538 -0.75l1.59375 0.28125q-0.28125 0.234375 -0.53125 0.46875q-0.234375 0.234375 -0.390625 0.5q-0.140625 0.265625 -0.140625 0.625q0 0.5625 0.625 0.828125q0.640625 0.28125 2.109375 0.28125q1.21875 0 1.890625 -0.21875q0.671875 -0.203125 0.671875 -0.84375q0 -0.34375 -0.1875 -0.546875q-0.171875 -0.203125 -0.578125 -0.328125q-0.40625 -0.125 -1.109375 -0.203125l-3.65625 -0.46875q-1.1562538 -0.140625 -1.8437538 -0.828125q-0.6875 -0.6875 -0.6875 -1.703125q0 -0.875 0.546875 -1.640625q0.546875 -0.765625 1.4375038 -1.5l1.4375 0.8125q-0.296875 0.3125 -0.484375 0.578125q-0.171875 0.265625 -0.171875 0.59375q0 0.296875 0.296875 0.484375q0.3125 0.171875 1.09375 0.265625l3.46875 0.46875q1.875 0.21875 2.75 1.234375q0.875 1.015625 0.875 2.609375q0 1.421875 -0.625 2.375q-0.609375 0.96875 -2.0 1.453125q-1.375 0.4999981 -3.65625 0.4999981zm0.25 -9.796873q-1.71875 0 -2.90625 -0.609375q-1.1718788 -0.609375 -1.7656288 -1.734375q-0.59375 -1.125 -0.59375 -2.71875q0 -1.656251 0.609375 -2.796876q0.609375 -1.140625 1.7812538 -1.71875q1.1875 -0.578125 2.875 -0.578125q1.625 0 2.734375 0.609375q1.125 0.609375 1.71875 1.734375q0.59375 1.125 0.59375 2.750001q0 1.59375 -0.578125 2.71875q-0.5625 1.125 -1.6875 1.734375q-1.109375 0.609375 -2.78125 0.609375zm0 -2.453125q0.359375 0 0.578125 -0.140625q0.21875 -0.140625 0.328125 -0.4375q0.109375 -0.3125 0.15625 -0.8125q0.0625 -0.515625 0.0625 -1.21875q0 -0.734375 -0.0625 -1.234375q-0.046875 -0.50000095 -0.15625 -0.81250095q-0.109375 -0.3125 -0.328125 -0.453125q-0.21875 -0.140625 -0.578125 -0.140625q-0.328125 0 -0.5625 0.140625q-0.21875 0.140625 -0.34375 0.453125q-0.125 0.296875 -0.1875 0.81250095q-0.046875 0.5 -0.046875 1.234375q0 0.703125 0.046875 1.203125q0.0625 0.484375 0.171875 0.8125q0.109375 0.3125 0.34375 0.453125q0.234375 0.140625 0.578125 0.140625zm4.15625 -5.140626l-0.859375 -1.125q0.375 -0.734375 0.9375 -1.171875q0.578125 -0.4375 1.546875 -0.90625l0.984375 1.984375q-0.25 0.078125 -0.75 0.296875q-0.484375 0.203125 -1.015625 0.46875q-0.515625 0.25 -0.84375 0.453125zm8.283157 12.578126q-1.59375 0 -2.734375 -0.5625q-1.140625 -0.578125 -1.75 -1.671875q-0.609375 -1.109375 -0.609375 -2.65625l0 -5.359375q0 -1.578126 0.609375 -2.656251q0.609375 -1.09375 1.765625 -1.65625q1.15625 -0.578125 2.71875 -0.578125q1.625 0 2.703125 0.5625q1.078125 0.546875 1.609375 1.640625q0.546875 1.09375 0.546875 2.687501l0 2.9375l-5.875 0l0 2.8125q0 0.546875 0.125 0.90625q0.125 0.359375 0.359375 0.515625q0.234375 0.140625 0.53125 0.140625q0.296875 0 0.53125 -0.140625q0.25 -0.140625 0.390625 -0.4375q0.140625 -0.3125 0.140625 -0.84375l0 -1.53125l3.796875 0l0 1.40625q0 2.234375 -1.296875 3.359375q-1.28125 1.125 -3.5625 1.125zm-1.015625 -9.234375l2.078125 0l0 -1.46875q0 -0.59375 -0.140625 -0.92187595q-0.140625 -0.328125 -0.390625 -0.453125q-0.234375 -0.125 -0.5625 -0.125q-0.296875 0 -0.515625 0.15625q-0.21875 0.140625 -0.34375 0.51562595q-0.125 0.359375 -0.125 1.046875l0 1.25z" fill-rule="nonzero"/></g></svg>